<svg width="106" height="81" viewBox="0 0 106 81" fill="none" xmlns="http://www.w3.org/2000/svg">
<g opacity="0.848005" filter="url(#filter0_f)">
<rect x="28" y="28" width="50" height="25" rx="12.5" fill="#01114C"/>
</g>
<rect x="28" y="3" width="50" height="50" rx="19" fill="#01114C"/>
<path fill-rule="evenodd" clip-rule="evenodd" d="M46.7221 18.6524L47.5683 21.118L64 21.354L62.8536 25.9966C62.6685 26.7565 61.9975 27.3169 61.1886 27.3868L50.0794 28.4884L50.2432 28.8819C50.2746 29.0128 50.2651 29.1496 50.2159 29.2753L49.8884 30.0623C49.7162 30.4781 49.7672 30.9486 50.0249 31.3213C50.2637 31.6989 50.6844 31.9356 51.1439 31.9508H61.7892C62.0907 31.9508 62.3351 32.1857 62.3351 32.4754C62.3351 32.7651 62.0907 33 61.7892 33H51.144C50.3153 32.9761 49.5511 32.5648 49.0968 31.8984C48.6598 31.2113 48.5791 30.3685 48.8785 29.6164L49.1241 29.0131L45.6849 18.9672C45.4909 18.428 44.9682 18.0618 44.3747 18.0492H42.5459C42.2444 18.0492 42 17.8143 42 17.5246C42 17.2349 42.2444 17 42.5459 17H44.3747C45.4434 17.0147 46.3853 17.6777 46.7221 18.6524ZM52 36.5C52 37.8807 50.8807 39 49.5 39C48.1193 39 47 37.8807 47 36.5C47 35.1193 48.1193 34 49.5 34C50.8807 34 52 35.1193 52 36.5ZM62 36.5C62 37.8807 60.8807 39 59.5 39C58.1193 39 57 37.8807 57 36.5C57 35.1193 58.1193 34 59.5 34C60.8807 34 62 35.1193 62 36.5Z" fill="white"/>
<defs>
<filter id="filter0_f" x="0.817183" y="0.817183" width="104.366" height="79.3656" filterUnits="userSpaceOnUse" color-interpolation-filters="sRGB">
<feFlood flood-opacity="0" result="BackgroundImageFix"/>
<feBlend mode="normal" in="SourceGraphic" in2="BackgroundImageFix" result="shape"/>
<feGaussianBlur stdDeviation="13.5914" result="effect1_foregroundBlur"/>
</filter>
</defs>
</svg>
