<svg width="16" height="23" viewBox="0 0 16 23" fill="none" xmlns="http://www.w3.org/2000/svg">
<path d="M1.17342 11.26L1.64125 11.0835C1.63762 11.0739 1.63371 11.0645 1.6295 11.0551L1.17342 11.26ZM1.24928 11.4398L0.796419 11.6517L0.79642 11.6517L1.24928 11.4398ZM5.7512 21.0597L6.20407 20.8477L5.7512 21.0597ZM8.01928 22.5L8.01853 22H8.01853L8.01928 22.5ZM10.283 21.0528L10.7365 21.2634L10.283 21.0528ZM14.8392 11.2402L15.2927 11.4507L15.2927 11.4507L14.8392 11.2402ZM14.9266 11.0273L14.464 10.8375C14.4611 10.8446 14.4584 10.8516 14.4558 10.8587L14.9266 11.0273ZM8 5C6.38643 5 5 6.34801 5 8.10864H6C6 6.88598 6.95293 6 8 6V5ZM11 8.10864C11 6.34801 9.61357 5 8 5V6C9.04707 6 10 6.88598 10 8.10864H11ZM8 11.2173C9.61357 11.2173 11 9.86928 11 8.10864H10C10 9.33131 9.04707 10.2173 8 10.2173V11.2173ZM5 8.10864C5 9.86928 6.38643 11.2173 8 11.2173V10.2173C6.95293 10.2173 6 9.33131 6 8.10864H5ZM1 8.10864C1 4.22237 4.0947 1 8 1V0C3.52025 0 0 3.69251 0 8.10864H1ZM1.6295 11.0551C1.22473 10.1542 1 9.15548 1 8.10864H0C0 9.2996 0.255843 10.4378 0.717347 11.4649L1.6295 11.0551ZM1.70215 11.2279C1.67978 11.1801 1.6595 11.1319 1.64125 11.0835L0.705601 11.4365C0.732903 11.5089 0.763164 11.5807 0.796419 11.6517L1.70215 11.2279ZM6.20407 20.8477L1.70215 11.2279L0.79642 11.6517L5.29834 21.2716L6.20407 20.8477ZM8.01853 22C7.24117 22.0012 6.53356 21.5518 6.20407 20.8477L5.29834 21.2716C5.79258 22.3277 6.854 23.0018 8.02003 23L8.01853 22ZM9.82951 20.8423C9.50214 21.5473 8.79588 21.9988 8.01853 22L8.02003 23C9.18607 22.9982 10.2455 22.321 10.7365 21.2634L9.82951 20.8423ZM14.3857 11.0296L9.82951 20.8423L10.7365 21.2634L15.2927 11.4507L14.3857 11.0296ZM14.4558 10.8587C14.4353 10.9161 14.412 10.9731 14.3857 11.0296L15.2927 11.4507C15.3317 11.3667 15.3666 11.2816 15.3973 11.1958L14.4558 10.8587ZM15 8.10864C15 9.072 14.8097 9.99456 14.464 10.8375L15.3892 11.217C15.7834 10.2558 16 9.20452 16 8.10864H15ZM8 1C11.9053 1 15 4.22237 15 8.10864H16C16 3.69251 12.4797 0 8 0V1Z" fill="#041E8B"/>
<circle cx="8.5" cy="8.5" r="1.5" fill="#6D7278"/>
</svg>
