<svg width="106" height="81" viewBox="0 0 106 81" fill="none" xmlns="http://www.w3.org/2000/svg">
<g opacity="0.848005" filter="url(#filter0_f)">
<rect x="28" y="28" width="50" height="25" rx="12.5" fill="#01114C"/>
</g>
<rect x="27" y="3" width="50" height="50" rx="19" fill="#0025B4"/>
<path d="M43 32.4869V38H46V32.4869C46 32.218 45.8338 32 45.6288 32H43.3712C43.1662 32 43 32.218 43 32.4869Z" fill="#09B1D9"/>
<path d="M49 30.4659V38H52V30.4659C52 30.2086 51.8338 30 51.6288 30H49.3712C49.1662 30 49 30.2086 49 30.4659V30.4659Z" fill="#09B1D9"/>
<path d="M53 28.4304V38H56V28.4304C56 28.1927 55.8338 28 55.6288 28H53.3712C53.1662 28 53 28.1927 53 28.4304V28.4304Z" fill="#09B1D9"/>
<path d="M59 26.44V38H62V26.44C62 26.197 61.8338 26 61.6288 26H59.3712C59.1662 26 59 26.197 59 26.44V26.44Z" fill="#09B1D9"/>
<path d="M53 32.8747V38H56V31C55.0785 31.6758 54.0732 32.3072 53 32.8747Z" fill="white"/>
<path d="M51.3213 34.2667C50.5395 34.5618 49.7634 34.8133 49 35.0227V38H52V34C51.7761 34.0914 51.5499 34.1804 51.3213 34.2667Z" fill="white"/>
<path d="M43 35.4988V38H46V35C44.9622 35.2558 43.956 35.4211 43 35.4988Z" fill="white"/>
<path d="M59 30.8765V38H62V28C61.2167 28.9902 60.2011 29.9658 59 30.8765Z" fill="white"/>
<path d="M41 38.6906V38.3094C41 38.1385 41.2072 38 41.4628 38H63.5372C63.7928 38 64 38.1385 64 38.3094V38.6906C64 38.8615 63.7928 39 63.5372 39H41.4628C41.2072 39 41 38.8615 41 38.6906Z" fill="white"/>
<path d="M62.2326 17H58.8705C58.6082 17 58.3957 17.2077 58.3957 17.464V18.036C58.3957 18.2923 58.6082 18.5 58.8705 18.5H60.3799L56.3512 22.4375H53.1679C52.9528 22.4375 52.7475 22.5258 52.6022 22.6807L48.0821 27.5H43.4748C43.2126 27.5 43 27.7077 43 27.964V28.536C43 28.7923 43.2126 29 43.4748 29H48.4197C48.6348 29 48.84 28.9118 48.9854 28.7568L53.5054 23.9375H56.6691C56.8726 23.9375 57.0678 23.8585 57.2117 23.7178L61.4652 19.5607V21.036C61.4652 21.2923 61.6778 21.5 61.94 21.5H62.5252C62.7874 21.5 63 21.2923 63 21.036V17.75C63 17.3358 62.6564 17 62.2326 17Z" fill="#09B1D9"/>
<defs>
<filter id="filter0_f" x="0.817183" y="0.817183" width="104.366" height="79.3656" filterUnits="userSpaceOnUse" color-interpolation-filters="sRGB">
<feFlood flood-opacity="0" result="BackgroundImageFix"/>
<feBlend mode="normal" in="SourceGraphic" in2="BackgroundImageFix" result="shape"/>
<feGaussianBlur stdDeviation="13.5914" result="effect1_foregroundBlur"/>
</filter>
</defs>
</svg>
