<svg width="31" height="31" viewBox="0 0 31 31" fill="none" xmlns="http://www.w3.org/2000/svg">
<rect width="31" height="31" rx="8" fill="#0091FF"/>
<path fill-rule="evenodd" clip-rule="evenodd" d="M15.498 10.0115C14.7468 9.98473 13.9947 10.005 13.246 10.0722C12.7869 10.0703 12.3312 10.1526 11.9017 10.3148C11.5302 10.4337 11.1936 10.642 10.9212 10.9212C10.6427 11.1921 10.4345 11.527 10.3148 11.8966C10.1224 12.3191 10.039 12.783 10.0722 13.246C10.005 13.9946 9.98473 14.7468 10.0115 15.498C9.9846 16.2502 10.0049 17.0033 10.0722 17.753C10.0707 18.2111 10.1529 18.6657 10.3148 19.0943C10.4345 19.4639 10.6427 19.7988 10.9212 20.0697C11.1921 20.3482 11.527 20.5564 11.8966 20.6761C12.3272 20.8421 12.7846 20.9274 13.246 20.9278C13.9957 20.9951 14.7488 21.0154 15.501 20.9885C16.2533 21.0154 17.0064 20.9951 17.7561 20.9278C18.2143 20.929 18.6688 20.8464 19.0974 20.6842C19.8414 20.4279 20.426 19.8434 20.6823 19.0993C20.8458 18.6694 20.929 18.213 20.9279 17.753C20.9279 17.5155 20.9372 17.3424 20.9485 17.1319V17.1319C20.9661 16.805 20.9886 16.3877 20.9886 15.498C21.0153 14.7468 20.9951 13.9946 20.9279 13.246C20.929 12.7878 20.8465 12.3332 20.6843 11.9047C20.5634 11.5313 20.3524 11.1935 20.0698 10.9212C19.7988 10.6427 19.464 10.4345 19.0944 10.3148C18.6658 10.1529 18.2112 10.0707 17.7531 10.0722C17.0034 10.0049 16.2502 9.9846 15.498 10.0115ZM15.498 10.9869C16.23 10.9593 16.963 10.9796 17.6924 11.0476C18.0462 11.0433 18.3976 11.1053 18.7285 11.2305C19.1849 11.4433 19.5518 11.8101 19.7645 12.2666C19.8898 12.5977 19.9519 12.9495 19.9475 13.3036C19.9475 13.5121 19.9562 13.6678 19.9671 13.8609V13.8609V13.8609V13.8609C19.9848 14.1761 20.0081 14.591 20.0081 15.498C20.0357 16.2303 20.0155 16.9637 19.9475 17.6934C19.9518 18.0471 19.8897 18.3985 19.7645 18.7294C19.5516 19.1855 19.1847 19.5519 18.7285 19.7644C18.3979 19.8895 18.0468 19.9516 17.6934 19.9474C17.485 19.9474 17.3293 19.9561 17.1363 19.967L17.1362 19.967L17.1361 19.967H17.1361H17.1361H17.1361C16.8209 19.9847 16.406 20.008 15.499 20.008C14.767 20.0356 14.034 20.0154 13.3046 19.9474C12.9509 19.9517 12.5995 19.8896 12.2686 19.7644C11.8114 19.5521 11.4438 19.1852 11.2305 18.7284C11.1054 18.3978 11.0434 18.0468 11.0476 17.6934C11.0476 17.4849 11.0388 17.3292 11.028 17.1361C11.0102 16.8209 10.9869 16.406 10.9869 15.499C10.9593 14.767 10.9796 14.034 11.0476 13.3046C11.0433 12.9509 11.1053 12.5994 11.2305 12.2686C11.3372 12.0436 11.4814 11.8385 11.6571 11.6621C11.7993 11.4496 12.0155 11.2976 12.2635 11.2356C12.5944 11.1104 12.9458 11.0483 13.2996 11.0526C14.0302 10.9828 14.7646 10.9608 15.498 10.9869ZM13.502 13.502C14.0305 12.9735 14.7507 12.682 15.498 12.6941C17.0466 12.6941 18.3019 13.9494 18.3019 15.498C18.3019 17.0465 17.0466 18.3019 15.498 18.3019C13.9495 18.3019 12.6941 17.0465 12.6941 15.498C12.682 14.7507 12.9735 14.0304 13.502 13.502ZM15.498 17.3275C15.0102 17.3363 14.5398 17.1464 14.1949 16.8013C13.8501 16.4563 13.6604 15.9858 13.6695 15.498C13.6607 15.0104 13.8505 14.5401 14.1953 14.1953C14.5402 13.8504 15.0104 13.6606 15.498 13.6695C15.9856 13.6606 16.4559 13.8504 16.8007 14.1953C17.1456 14.5401 17.3354 15.0104 17.3265 15.498C17.3354 15.9856 17.1456 16.4558 16.8007 16.8007C16.4559 17.1455 15.9856 17.3353 15.498 17.3265V17.3275ZM17.7541 12.5718C17.7541 12.2017 18.0541 11.9017 18.4242 11.9017C18.793 11.905 19.0911 12.2031 19.0944 12.5718C19.0944 12.9419 18.7943 13.2419 18.4242 13.2419C18.0541 13.2419 17.7541 12.9419 17.7541 12.5718Z" fill="#E8E8E8"/>
</svg>
