<svg width="31" height="31" viewBox="0 0 31 31" fill="none" xmlns="http://www.w3.org/2000/svg">
<rect width="31" height="31" rx="8" fill="#0091FF"/>
<path d="M10.0742 10.4259C11.4381 12.1328 13.4614 13.2051 15.6602 13.3861C15.4596 12.5554 15.6627 11.6801 16.2098 11.0174C16.7569 10.3547 17.5859 9.97987 18.4531 10.003C19.2598 9.96596 20.0433 10.2744 20.6016 10.8488C21.2307 10.834 21.8364 10.6104 22.3203 10.2144C22.1433 10.8135 21.7645 11.3355 21.2461 11.6946C21.7781 11.6974 22.2999 11.5507 22.75 11.2717C22.4667 11.9409 21.9261 12.4729 21.2461 12.7518C21.3629 14.8627 20.6067 16.9304 19.1498 18.4838C17.6928 20.0372 15.6591 20.9442 13.5117 20.9982C11.9124 21.0318 10.3399 20.5896 9 19.7295C10.4326 19.7456 11.843 19.3803 13.082 18.6723C11.9551 18.4983 10.9892 17.7854 10.5039 16.7693C10.9434 16.7806 11.381 16.7088 11.793 16.5578C10.534 16.1645 9.61544 15.0961 9.42969 13.809C9.8265 14.033 10.2648 14.1768 10.7188 14.2319C9.5779 13.2942 9.30404 11.677 10.0742 10.4259Z" fill="#E8E8E8"/>
</svg>
