<svg width="245" height="67" viewBox="0 0 245 67" fill="none" xmlns="http://www.w3.org/2000/svg">
<rect y="0.286865" width="245" height="66.0694" rx="5" fill="white"/>
<mask id="mask0" mask-type="alpha" maskUnits="userSpaceOnUse" x="0" y="0" width="245" height="67">
<rect y="0.286865" width="245" height="66.0694" rx="5" fill="white"/>
</mask>
<g mask="url(#mask0)">
<path fill-rule="evenodd" clip-rule="evenodd" d="M131.78 72.7891C131.78 72.7891 182.447 72.304 216.766 44.9535C251.084 17.603 252.304 -23.2639 252.304 -23.2639L348.4 4.84601C348.4 4.84601 345.344 53.5735 334.054 69.6855C322.764 85.7975 286.368 93.3711 286.368 93.3711L131.78 72.7891Z" fill="#09B1D9"/>
<path fill-rule="evenodd" clip-rule="evenodd" d="M120.531 105.624C120.531 105.624 170.87 99.8314 202.149 69.0337C233.428 38.2359 230.382 -2.53499 230.382 -2.53499L328.881 15.3489C328.881 15.3489 330.922 64.1297 321.373 81.3368C311.824 98.5439 276.417 109.891 276.417 109.891L120.531 105.624Z" fill="#01114C"/>
</g>
</svg>
