<svg width="53" height="53" viewBox="0 0 53 53" fill="none" xmlns="http://www.w3.org/2000/svg">
<rect y="0.5" width="53" height="52" rx="5" fill="#1B1E76"/>
<path d="M30.3435 12.5H23.9235C20.6489 12.5172 18 15.0231 18 18.1035V18.9213C19.3428 17.0766 21.5503 15.9804 23.9235 15.9804H30.3435C35.1996 15.9804 39.3205 19.4434 39.5595 23.707C39.6883 25.9693 38.842 28.1273 37.2048 29.763C35.6964 31.2596 33.7466 32.1471 31.5942 32.3038C30.5274 33.6263 29.9386 35.21 29.9386 36.8459V37.072C30.0491 36.4458 30.5274 35.9584 31.1528 35.7842C34.4823 35.7319 37.5728 34.4616 39.8722 32.1645C42.2269 29.8326 43.4042 26.7525 43.2386 23.5328C42.889 17.4594 37.113 12.5 30.3435 12.5Z" fill="white"/>
<path d="M31.6371 32.3996C30.5669 33.7219 29.9763 35.3054 29.9763 36.9411V37.1671C29.958 37.2717 29.958 37.4109 29.958 37.5327C29.958 40.7342 27.2637 43.2747 23.979 43.2747C20.6758 43.2747 18 40.7342 18 37.637V19.019C19.347 17.1744 21.5615 16.0785 23.9422 16.0785C22.7056 16.0959 21.6907 17.0352 21.6907 18.2012V37.637C21.6907 38.8203 22.7056 39.7945 23.979 39.7945C25.2337 39.7945 26.2671 38.8203 26.2671 37.637C26.1197 35.2011 28.0018 32.9216 30.6408 32.4343L30.9912 32.4168C31.2129 32.4168 31.4342 32.4168 31.6371 32.3996Z" fill="#DBDBDB"/>
<path d="M31.6371 32.3008C31.205 33.4153 31.0481 34.5995 31.1659 35.7834C30.498 35.9577 29.9874 36.4454 29.8694 37.072V36.8458C29.8694 35.2088 30.498 33.6241 31.6371 32.3008Z" fill="#7C7C7C"/>
<path d="M23.8084 16.0785C21.4813 16.0785 19.3167 17.1455 18 18.9412C19.119 18.2266 20.3847 17.7389 21.7157 17.5097C22.0039 16.6867 22.8359 16.0921 23.8084 16.0785Z" fill="#7C7C7C"/>
</svg>
