<svg width="153" height="153" viewBox="0 0 153 153" fill="none" xmlns="http://www.w3.org/2000/svg">
<path fill-rule="evenodd" clip-rule="evenodd" d="M190.554 74.7874C191.32 75.5505 192.585 75.5236 193.383 74.7253C194.181 73.9271 194.208 72.6607 193.445 71.8964C192.681 71.1321 191.416 71.1602 190.616 71.9584C189.818 72.7567 189.791 74.0231 190.554 74.7874ZM182.079 83.2625C182.843 84.0267 184.109 83.9987 184.908 83.2004C185.706 82.4022 185.733 81.1358 184.97 80.3727C184.204 79.6084 182.938 79.6365 182.141 80.4347C181.343 81.2318 181.316 82.4982 182.079 83.2625ZM173.604 91.7375C174.367 92.5018 175.633 92.4737 176.432 91.6767C177.23 90.8784 177.258 89.612 176.494 88.8477C175.729 88.0835 174.463 88.1115 173.666 88.9098C172.868 89.708 172.84 90.9744 173.604 91.7375ZM165.129 100.214C165.892 100.977 167.158 100.95 167.957 100.152C168.754 99.3535 168.783 98.0871 168.017 97.3228C167.254 96.5597 165.988 96.5866 165.19 97.3849C164.393 98.1831 164.363 99.4495 165.129 100.214ZM156.651 108.689C157.417 109.453 158.683 109.425 159.48 108.628C160.279 107.829 160.307 106.562 159.542 105.799C158.779 105.035 157.513 105.063 156.715 105.861C155.916 106.658 155.888 107.925 156.651 108.689ZM148.176 117.165C148.942 117.928 150.207 117.901 151.005 117.103C151.803 116.305 151.83 115.038 151.067 114.274C150.303 113.51 149.038 113.538 148.238 114.336C147.44 115.134 147.413 116.401 148.176 117.165ZM139.701 125.64C140.465 126.405 141.732 126.376 142.53 125.578C143.328 124.78 143.355 123.514 142.592 122.75C141.827 121.986 140.561 122.014 139.763 122.812C138.965 123.61 138.938 124.876 139.701 125.64ZM131.226 134.115C131.989 134.88 133.256 134.852 134.054 134.054C134.852 133.256 134.88 131.99 134.116 131.226C133.352 130.461 132.085 130.489 131.288 131.288C130.49 132.086 130.461 133.352 131.226 134.115ZM122.751 142.592C123.514 143.355 124.78 143.328 125.579 142.53C126.376 141.731 126.405 140.465 125.64 139.701C124.876 138.937 123.61 138.966 122.812 139.763C122.015 140.561 121.985 141.827 122.751 142.592ZM114.275 151.067C115.039 151.831 116.305 151.803 117.102 151.006C117.901 150.206 117.928 148.94 117.164 148.177C116.401 147.413 115.135 147.441 114.337 148.239C113.538 149.036 113.51 150.304 114.275 151.067ZM105.798 159.543C106.564 160.306 107.83 160.278 108.627 159.481C109.426 158.683 109.452 157.416 108.689 156.652C107.925 155.888 106.66 155.916 105.86 156.714C105.062 157.512 105.035 158.779 105.798 159.543ZM97.3233 168.018C98.0876 168.782 99.3528 168.754 100.152 167.956C100.95 167.158 100.977 165.891 100.214 165.128C99.4488 164.364 98.1836 164.392 97.3853 165.19C96.5871 165.987 96.5602 167.254 97.3233 168.018ZM88.8482 176.493C89.6113 177.257 90.8777 177.229 91.676 176.432C92.4742 175.634 92.5023 174.368 91.738 173.603C90.9737 172.839 89.7073 172.867 88.9102 173.665C88.112 174.464 88.0839 175.73 88.8482 176.493ZM80.3731 184.969C81.1362 185.734 82.4026 185.706 83.2009 184.907C83.9979 184.109 84.0272 182.843 83.2617 182.078C82.4986 181.315 81.2322 181.343 80.434 182.14C79.6369 182.939 79.6076 184.205 80.3731 184.969ZM71.8968 193.444C72.6611 194.209 73.9275 194.181 74.7246 193.384C75.5228 192.585 75.5498 191.318 74.7866 190.555C74.0235 189.79 72.7571 189.818 71.9589 190.617C71.1595 191.415 71.1325 192.681 71.8968 193.444ZM182.458 66.6915C183.224 67.4546 184.49 67.4277 185.287 66.6295C186.085 65.8312 186.112 64.5648 185.349 63.8005C184.586 63.0362 183.32 63.0643 182.52 63.8626C181.722 64.6608 181.695 65.9272 182.458 66.6915ZM173.983 75.1666C174.747 75.9309 176.013 75.9028 176.812 75.1046C177.61 74.3063 177.637 73.0399 176.874 72.2756C176.109 71.5125 174.842 71.5406 174.045 72.3388C173.247 73.1359 173.22 74.4023 173.983 75.1666ZM165.508 83.6417C166.271 84.406 167.538 84.3779 168.336 83.5808C169.134 82.7826 169.162 81.5162 168.398 80.7519C167.633 79.9876 166.367 80.0157 165.57 80.8139C164.772 81.6122 164.744 82.8786 165.508 83.6417ZM157.033 92.1179C157.796 92.881 159.062 92.8541 159.861 92.0559C160.658 91.2577 160.687 89.9913 159.922 89.227C159.158 88.4638 157.892 88.4908 157.094 89.289C156.297 90.0872 156.267 91.3536 157.033 92.1179ZM148.557 100.593C149.321 101.357 150.587 101.329 151.384 100.532C152.183 99.7328 152.211 98.4664 151.446 97.7032C150.683 96.9389 149.417 96.967 148.619 97.7653C147.82 98.5623 147.792 99.8287 148.557 100.593ZM140.08 109.069C140.846 109.832 142.112 109.805 142.909 109.007C143.708 108.209 143.734 106.943 142.971 106.178C142.208 105.414 140.942 105.442 140.142 106.24C139.344 107.039 139.317 108.305 140.08 109.069ZM131.605 117.544C132.37 118.309 133.636 118.281 134.434 117.482C135.232 116.684 135.259 115.418 134.496 114.655C133.731 113.89 132.466 113.918 131.667 114.717C130.869 115.514 130.842 116.78 131.605 117.544ZM123.13 126.019C123.893 126.784 125.16 126.756 125.958 125.959C126.756 125.16 126.784 123.894 126.02 123.13C125.256 122.365 123.989 122.393 123.192 123.192C122.394 123.99 122.366 125.256 123.13 126.019ZM114.655 134.496C115.418 135.259 116.685 135.232 117.483 134.434C118.28 133.635 118.309 132.369 117.544 131.605C116.781 130.842 115.514 130.87 114.716 131.667C113.919 132.465 113.89 133.731 114.655 134.496ZM106.179 142.971C106.943 143.735 108.209 143.707 109.007 142.91C109.805 142.112 109.832 140.844 109.069 140.081C108.305 139.317 107.039 139.345 106.241 140.143C105.443 140.941 105.414 142.208 106.179 142.971ZM97.7025 151.447C98.468 152.21 99.7344 152.182 100.531 151.385C101.33 150.587 101.357 149.32 100.593 148.556C99.8304 147.793 98.564 147.82 97.7646 148.618C96.9663 149.416 96.9394 150.683 97.7025 151.447ZM89.2274 159.922C89.9917 160.686 91.2581 160.658 92.0564 159.86C92.8546 159.062 92.8815 157.795 92.1184 157.032C91.3529 156.268 90.0877 156.296 89.2895 157.093C88.4912 157.891 88.4643 159.158 89.2274 159.922ZM80.7523 168.397C81.5154 169.162 82.7819 169.133 83.5801 168.336C84.3783 167.538 84.4064 166.272 83.6421 165.507C82.8778 164.743 81.6114 164.771 80.8144 165.569C80.0161 166.368 79.988 167.634 80.7523 168.397ZM72.2772 176.874C73.0403 177.638 74.3068 177.61 75.105 176.811C75.9021 176.013 75.9313 174.747 75.1658 173.983C74.4027 173.219 73.1363 173.247 72.3381 174.045C71.541 174.843 71.5118 176.109 72.2772 176.874ZM63.801 185.349C64.5653 186.113 65.8317 186.085 66.6287 185.288C67.427 184.489 67.455 183.223 66.6908 182.459C65.9276 181.694 64.6612 181.723 63.863 182.521C63.0636 183.319 63.0367 184.585 63.801 185.349ZM174.362 58.5956C175.128 59.3587 176.394 59.3318 177.191 58.5336C177.989 57.7354 178.016 56.469 177.253 55.7047C176.49 54.9404 175.224 54.9685 174.424 55.7667C173.626 56.5649 173.599 57.8313 174.362 58.5956ZM165.887 67.0707C166.65 67.835 167.917 67.8069 168.716 67.0087C169.514 66.2105 169.541 64.944 168.778 64.1798C168.013 63.4166 166.746 63.4447 165.949 64.243C165.151 65.04 165.124 66.3064 165.887 67.0707ZM157.412 75.5458C158.175 76.3101 159.442 76.282 160.24 75.4849C161.038 74.6867 161.066 73.4203 160.302 72.656C159.538 71.8917 158.271 71.9198 157.474 72.718C156.676 73.5163 156.649 74.7827 157.412 75.5458ZM148.937 84.0221C149.7 84.7852 150.967 84.7583 151.765 83.96C152.562 83.1618 152.591 81.8954 151.826 81.1311C151.063 80.368 149.796 80.3949 148.998 81.1931C148.201 81.9914 148.172 83.2578 148.937 84.0221ZM140.461 92.4971C141.225 93.2614 142.491 93.2334 143.289 92.4363C144.087 91.6369 144.115 90.3716 143.351 89.6074C142.587 88.8431 141.321 88.8712 140.523 89.6694C139.725 90.4665 139.696 91.734 140.461 92.4971ZM131.984 100.973C132.75 101.737 134.016 101.71 134.813 100.911C135.612 100.113 135.639 98.8467 134.875 98.0824C134.112 97.3181 132.846 97.3462 132.047 98.1445C131.248 98.9427 131.221 100.209 131.984 100.973ZM123.509 109.448C124.274 110.213 125.539 110.185 126.338 109.386C127.137 108.588 127.163 107.322 126.4 106.559C125.635 105.794 124.368 105.822 123.571 106.621C122.773 107.418 122.746 108.684 123.509 109.448ZM115.034 117.924C115.797 118.688 117.064 118.66 117.862 117.863C118.66 117.064 118.688 115.798 117.925 115.034C117.16 114.27 115.893 114.298 115.096 115.096C114.298 115.894 114.27 117.16 115.034 117.924ZM106.559 126.4C107.322 127.164 108.589 127.136 109.387 126.338C110.185 125.54 110.213 124.273 109.448 123.509C108.685 122.746 107.418 122.774 106.62 123.572C105.823 124.369 105.794 125.636 106.559 126.4ZM98.0829 134.875C98.8472 135.639 100.114 135.611 100.911 134.814C101.709 134.016 101.737 132.749 100.973 131.985C100.21 131.221 98.9432 131.249 98.1449 132.047C97.3467 132.845 97.3186 134.112 98.0829 134.875ZM89.6066 143.351C90.3721 144.114 91.6385 144.086 92.4356 143.289C93.2338 142.491 93.2607 141.225 92.4976 140.46C91.7345 139.697 90.4681 139.724 89.6687 140.522C88.8705 141.32 88.8435 142.587 89.6066 143.351ZM81.1315 151.826C81.8958 152.591 83.1622 152.562 83.9605 151.765C84.7587 150.966 84.7856 149.7 84.0225 148.936C83.257 148.172 81.9918 148.2 81.1936 148.997C80.3953 149.796 80.3684 151.062 81.1315 151.826ZM72.6564 160.301C73.4196 161.066 74.686 161.038 75.4842 160.241C76.2824 159.442 76.3105 158.176 75.5474 157.412C74.782 156.647 73.5155 156.675 72.7185 157.474C71.9202 158.272 71.8922 159.538 72.6564 160.301ZM64.1813 168.778C64.9445 169.542 66.2109 169.514 67.0091 168.716C67.8073 167.917 67.8354 166.651 67.07 165.887C66.3069 165.124 65.0404 165.152 64.2422 165.949C63.4451 166.747 63.4159 168.013 64.1813 168.778ZM55.7051 177.253C56.4694 178.017 57.7358 177.989 58.5328 177.191C59.3311 176.394 59.3592 175.127 58.5949 174.363C57.8318 173.599 56.5654 173.627 55.7671 174.425C54.9689 175.223 54.9408 176.49 55.7051 177.253ZM166.266 50.4998C167.032 51.2629 168.298 51.236 169.095 50.4377C169.894 49.6395 169.921 48.3731 169.157 47.6088C168.393 46.8457 167.128 46.8726 166.328 47.6708C165.53 48.4691 165.503 49.7355 166.266 50.4998ZM157.791 58.9749C158.556 59.7391 159.821 59.7111 160.62 58.9128C161.418 58.1146 161.445 56.8482 160.682 56.0851C159.917 55.3208 158.65 55.3489 157.853 56.1471C157.055 56.9442 157.028 58.2106 157.791 58.9749ZM149.316 67.4499C150.079 68.2142 151.346 68.1861 152.144 67.3891C152.942 66.5908 152.97 65.3244 152.207 64.5602C151.442 63.7959 150.175 63.8239 149.378 64.6222C148.58 65.4204 148.553 66.6868 149.316 67.4499ZM140.841 75.9262C141.604 76.6893 142.871 76.6624 143.669 75.8642C144.467 75.0659 144.495 73.7995 143.73 73.0352C142.967 72.2721 141.7 72.3002 140.902 73.0973C140.105 73.8955 140.077 75.1619 140.841 75.9262ZM132.365 84.4013C133.129 85.1656 134.396 85.1375 135.193 84.3404C135.991 83.541 136.019 82.2758 135.255 81.5115C134.492 80.7472 133.225 80.7753 132.427 81.5735C131.629 82.3706 131.601 83.6382 132.365 84.4013ZM123.889 92.8775C124.654 93.6407 125.92 93.6138 126.718 92.8155C127.516 92.0173 127.543 90.7509 126.78 89.9866C126.016 89.2223 124.75 89.2504 123.951 90.0486C123.152 90.8468 123.125 92.1133 123.889 92.8775ZM115.413 101.353C116.178 102.117 117.443 102.089 118.242 101.291C119.041 100.492 119.068 99.226 118.304 98.4628C117.539 97.6985 116.273 97.7266 115.476 98.5249C114.677 99.3219 114.65 100.588 115.413 101.353ZM106.938 109.828C107.702 110.592 108.968 110.565 109.766 109.767C110.564 108.969 110.592 107.702 109.829 106.938C109.064 106.174 107.798 106.202 107 107C106.202 107.798 106.175 109.065 106.938 109.828ZM98.4633 118.304C99.2264 119.068 100.493 119.04 101.291 118.242C102.089 117.444 102.117 116.177 101.352 115.413C100.589 114.65 99.3224 114.678 98.5242 115.475C97.7271 116.273 97.6978 117.54 98.4633 118.304ZM89.987 126.779C90.7513 127.543 92.0177 127.515 92.8148 126.718C93.613 125.92 93.6411 124.652 92.8768 123.889C92.1137 123.125 90.8473 123.153 90.0491 123.951C89.2508 124.75 89.2227 126.016 89.987 126.779ZM81.5108 135.255C82.2762 136.018 83.5426 135.99 84.3397 135.193C85.1379 134.395 85.1649 133.129 84.4017 132.364C83.6386 131.601 82.3722 131.628 81.574 132.426C80.7746 133.225 80.7476 134.491 81.5108 135.255ZM73.0357 143.73C73.8 144.495 75.0664 144.467 75.8646 143.67C76.6628 142.87 76.6898 141.604 75.9266 140.841C75.1612 140.076 73.8959 140.104 73.0977 140.903C72.2995 141.7 72.2725 142.966 73.0357 143.73ZM64.5606 152.207C65.3237 152.97 66.5901 152.942 67.3883 152.145C68.1866 151.346 68.2147 150.08 67.4515 149.316C66.6861 148.551 65.4197 148.579 64.6226 149.378C63.8244 150.176 63.7963 151.442 64.5606 152.207ZM56.0855 160.682C56.8486 161.446 58.115 161.418 58.9132 160.62C59.7115 159.821 59.7396 158.555 58.9741 157.791C58.211 157.028 56.9446 157.056 56.1463 157.853C55.3493 158.651 55.32 159.917 56.0855 160.682ZM47.6092 169.157C48.3735 169.921 49.6399 169.893 50.437 169.096C51.2352 168.298 51.2633 167.031 50.499 166.267C49.7359 165.503 48.4695 165.531 47.6712 166.329C46.873 167.127 46.8449 168.394 47.6092 169.157ZM158.171 42.4039C158.936 43.167 160.202 43.1401 160.999 42.3419C161.798 41.5436 161.825 40.2772 161.062 39.5129C160.298 38.7498 159.032 38.7767 158.233 39.575C157.434 40.3732 157.407 41.6396 158.171 42.4039ZM149.695 50.879C150.46 51.6433 151.725 51.6152 152.524 50.8181C153.323 50.0187 153.35 48.7523 152.586 47.9892C151.821 47.2249 150.555 47.253 149.757 48.0512C148.959 48.8483 148.932 50.1147 149.695 50.879ZM141.22 59.3541C141.983 60.1184 143.25 60.0903 144.048 59.2932C144.848 58.495 144.874 57.2286 144.111 56.4643C143.346 55.7 142.079 55.7281 141.282 56.5263C140.484 57.3245 140.457 58.591 141.22 59.3541ZM132.745 67.8303C133.508 68.5934 134.775 68.5665 135.573 67.7683C136.371 66.9701 136.399 65.7037 135.634 64.9394C134.871 64.1762 133.604 64.2043 132.806 65.0026C132.009 65.7996 131.981 67.066 132.745 67.8303ZM124.269 76.3054C125.033 77.0697 126.3 77.0416 127.097 76.2446C127.895 75.4452 127.924 74.1799 127.159 73.4156C126.396 72.6513 125.129 72.6794 124.331 73.4777C123.533 74.2747 123.505 75.5423 124.269 76.3054ZM115.793 84.7817C116.558 85.5448 117.825 85.5179 118.622 84.7196C119.42 83.9214 119.447 82.655 118.684 81.8907C117.921 81.1264 116.654 81.1545 115.855 81.9527C115.057 82.751 115.03 84.0174 115.793 84.7817ZM107.318 93.2568C108.082 94.0211 109.347 93.993 110.147 93.1959C110.945 92.3965 110.972 91.1301 110.209 90.367C109.443 89.6027 108.177 89.6308 107.38 90.429C106.581 91.2261 106.554 92.4925 107.318 93.2568ZM98.8425 101.732C99.6056 102.496 100.872 102.468 101.671 101.671C102.469 100.873 102.497 99.6063 101.732 98.8421C100.968 98.0778 99.7016 98.1059 98.9046 98.9041C98.1063 99.7023 98.0794 100.969 98.8425 101.732ZM90.3674 110.208C91.1305 110.972 92.3969 110.944 93.1952 110.146C93.9934 109.348 94.0215 108.081 93.2572 107.317C92.4929 106.554 91.2265 106.582 90.4283 107.379C89.6312 108.177 89.602 109.444 90.3674 110.208ZM81.8912 118.683C82.6554 119.447 83.9219 119.419 84.7189 118.622C85.5172 117.824 85.5464 116.557 84.781 115.793C84.0178 115.029 82.7514 115.057 81.9532 115.855C81.155 116.654 81.1269 117.92 81.8912 118.683ZM73.4149 127.159C74.1804 127.923 75.4468 127.896 76.2438 127.097C77.0421 126.299 77.069 125.033 76.3059 124.268C75.5427 123.505 74.2763 123.532 73.4781 124.331C72.6787 125.129 72.6518 126.395 73.4149 127.159ZM64.9398 135.635C65.7041 136.399 66.9705 136.371 67.7687 135.574C68.567 134.774 68.5939 133.508 67.8307 132.745C67.0653 131.98 65.8001 132.009 65.0018 132.807C64.2036 133.604 64.1767 134.87 64.9398 135.635ZM56.4647 144.111C57.2278 144.874 58.4942 144.846 59.2936 144.049C60.0907 143.251 60.1188 141.984 59.3557 141.22C58.5902 140.456 57.3238 140.484 56.5267 141.282C55.7285 142.08 55.7004 143.346 56.4647 144.111ZM47.9896 152.586C48.7527 153.35 50.0191 153.322 50.8174 152.524C51.6156 151.726 51.6437 150.459 50.8794 149.695C50.1151 148.932 48.8487 148.96 48.0505 149.757C47.2534 150.555 47.2241 151.822 47.9896 152.586ZM39.5133 161.061C40.2776 161.825 41.544 161.797 42.3411 161C43.1393 160.202 43.1674 158.935 42.4031 158.171C41.64 157.407 40.3736 157.435 39.5754 158.233C38.7771 159.031 38.749 160.298 39.5133 161.061ZM150.075 34.308C150.84 35.0712 152.107 35.0442 152.904 34.246C153.702 33.4478 153.729 32.1814 152.966 31.4171C152.203 30.6539 150.936 30.6809 150.137 31.4791C149.338 32.2773 149.312 33.5437 150.075 34.308ZM141.6 42.7831C142.364 43.5474 143.63 43.5193 144.428 42.7223C145.227 41.9229 145.254 40.6564 144.491 39.8933C143.725 39.129 142.46 39.1571 141.662 39.9554C140.863 40.7524 140.836 42.0188 141.6 42.7831ZM133.124 51.2582C133.888 52.0225 135.154 51.9956 135.952 51.1973C136.752 50.3991 136.779 49.1327 136.015 48.3684C135.25 47.6041 133.984 47.6322 133.187 48.4304C132.388 49.2287 132.361 50.4951 133.124 51.2582ZM124.649 59.7345C125.413 60.4976 126.679 60.4707 127.477 59.6724C128.275 58.8742 128.303 57.6078 127.538 56.8447C126.775 56.0804 125.508 56.1085 124.71 56.9067C123.913 57.7038 123.885 58.9702 124.649 59.7345ZM116.173 68.2095C116.937 68.9738 118.204 68.9457 119.001 68.1487C119.799 67.3493 119.828 66.084 119.063 65.3198C118.3 64.5555 117.033 64.5835 116.235 65.3818C115.438 66.18 115.409 67.4464 116.173 68.2095ZM107.697 76.6858C108.462 77.4489 109.729 77.422 110.526 76.6238C111.324 75.8255 111.351 74.5591 110.588 73.7948C109.825 73.0317 108.558 73.0586 107.759 73.8569C106.961 74.6551 106.934 75.9215 107.697 76.6858ZM99.2217 85.1609C99.986 85.9252 101.251 85.8971 102.051 85.1C102.849 84.3006 102.876 83.0342 102.113 82.2711C101.347 81.5068 100.082 81.5349 99.2838 82.3331C98.4855 83.1302 98.4586 84.3966 99.2217 85.1609ZM90.7466 93.636C91.5098 94.4003 92.7762 94.3722 93.5756 93.5751C94.3727 92.7769 94.4007 91.5105 93.6376 90.7462C92.8721 89.9819 91.6057 90.01 90.8087 90.8082C90.0105 91.6064 89.9835 92.8728 90.7466 93.636ZM82.2715 102.112C83.0347 102.877 84.3011 102.848 85.0993 102.05C85.8975 101.252 85.9256 99.9856 85.1613 99.2225C84.397 98.4582 83.1306 98.4863 82.3324 99.2833C81.5353 100.082 81.5073 101.348 82.2715 102.112ZM73.7953 110.587C74.5596 111.352 75.826 111.324 76.623 110.526C77.4213 109.728 77.4505 108.462 76.6851 107.698C75.922 106.933 74.6555 106.961 73.8573 107.76C73.0591 108.558 73.031 109.824 73.7953 110.587ZM65.319 119.064C66.0845 119.827 67.3509 119.8 68.1479 119.002C68.9462 118.203 68.9731 116.937 68.21 116.173C67.4469 115.41 66.1804 115.436 65.3822 116.235C64.5828 117.033 64.5559 118.299 65.319 119.064ZM56.8439 127.539C57.6082 128.303 58.8746 128.275 59.6728 127.478C60.4711 126.678 60.498 125.412 59.7349 124.649C58.9694 123.885 57.7042 123.913 56.9059 124.711C56.1077 125.508 56.0808 126.774 56.8439 127.539ZM48.3688 136.015C49.1319 136.778 50.3983 136.75 51.1977 135.953C51.9948 135.155 52.0229 133.888 51.2598 133.124C50.4943 132.36 49.2279 132.388 48.4308 133.186C47.6326 133.984 47.6045 135.251 48.3688 136.015ZM39.8937 144.49C40.6568 145.254 41.9232 145.226 42.7215 144.428C43.5197 143.63 43.5478 142.363 42.7835 141.599C42.0192 140.836 40.7528 140.864 39.9546 141.662C39.1575 142.459 39.1294 143.726 39.8937 144.49ZM31.4174 152.965C32.1817 153.729 33.4482 153.701 34.2452 152.904C35.0434 152.106 35.0715 150.84 34.3072 150.075C33.5441 149.311 32.2777 149.339 31.4795 150.137C30.6812 150.936 30.6532 152.202 31.4174 152.965ZM141.979 26.2122C142.744 26.9753 144.011 26.9484 144.808 26.1501C145.606 25.3519 145.633 24.0855 144.87 23.3212C144.107 22.5581 142.84 22.585 142.041 23.3844C141.243 24.1815 141.216 25.4479 141.979 26.2122ZM133.504 34.6872C134.268 35.4515 135.534 35.4234 136.333 34.6264C137.131 33.827 137.158 32.5617 136.395 31.7975C135.63 31.0332 134.364 31.0612 133.566 31.8595C132.768 32.6565 132.741 33.923 133.504 34.6872ZM125.029 43.1623C125.792 43.9266 127.058 43.8997 127.856 43.1015C128.656 42.3032 128.683 41.0368 127.92 40.2725C127.154 39.5083 125.888 39.5363 125.091 40.3346C124.292 41.1328 124.265 42.3992 125.029 43.1623ZM116.554 51.6386C117.317 52.4029 118.583 52.3748 119.381 51.5766C120.18 50.7783 120.208 49.5119 119.442 48.7488C118.679 47.9845 117.413 48.0126 116.614 48.8108C115.817 49.6079 115.789 50.8743 116.554 51.6386ZM108.077 60.1137C108.842 60.878 110.108 60.8499 110.905 60.0528C111.703 59.2546 111.732 57.9882 110.967 57.2239C110.204 56.4596 108.938 56.4877 108.139 57.2859C107.342 58.0842 107.313 59.3506 108.077 60.1137ZM99.601 68.5899C100.366 69.3531 101.633 69.3261 102.43 68.5279C103.228 67.7297 103.256 66.4633 102.492 65.699C101.729 64.9359 100.462 64.9628 99.6642 65.761C98.8648 66.5592 98.8378 67.8256 99.601 68.5899ZM91.1259 77.065C91.8902 77.8293 93.1554 77.8012 93.9548 77.0042C94.753 76.2048 94.78 74.9383 94.0168 74.1752C93.2514 73.4109 91.9861 73.439 91.1879 74.2373C90.3897 75.0343 90.3627 76.3007 91.1259 77.065ZM82.6508 85.5401C83.4139 86.3044 84.6803 86.2763 85.4797 85.4792C86.2779 84.681 86.3049 83.4146 85.5417 82.6503C84.7763 81.886 83.5099 81.9141 82.7128 82.7123C81.9146 83.5106 81.8876 84.777 82.6508 85.5401ZM74.1757 94.0164C74.9388 94.7807 76.2052 94.7526 77.0034 93.9543C77.8017 93.1561 77.8298 91.8897 77.0655 91.1266C76.3012 90.3623 75.0348 90.3904 74.2365 91.1874C73.4395 91.9857 73.4114 93.2521 74.1757 94.0164ZM65.6994 102.491C66.4637 103.256 67.7301 103.228 68.5272 102.431C69.3254 101.632 69.3547 100.366 68.5892 99.6017C67.8261 98.8374 66.5597 98.8655 65.7614 99.6637C64.9632 100.462 64.9351 101.728 65.6994 102.491ZM57.2231 110.968C57.9886 111.731 59.255 111.704 60.0521 110.906C60.8503 110.107 60.8784 108.841 60.1141 108.077C59.351 107.314 58.0846 107.341 57.2863 108.139C56.4869 108.937 56.46 110.203 57.2231 110.968ZM48.748 119.443C49.5123 120.207 50.7776 120.179 51.577 119.382C52.3752 118.583 52.4021 117.316 51.639 116.553C50.8735 115.789 49.6083 115.817 48.8101 116.615C48.0118 117.412 47.9849 118.679 48.748 119.443ZM40.2729 127.919C41.0372 128.682 42.3025 128.655 43.1019 127.857C43.8989 127.059 43.927 125.792 43.1639 125.028C42.3984 124.264 41.132 124.292 40.335 125.09C39.5367 125.888 39.5086 127.155 40.2729 127.919ZM31.7978 136.394C32.561 137.158 33.8274 137.13 34.6256 136.332C35.4238 135.534 35.4519 134.267 34.6876 133.503C33.9233 132.74 32.6569 132.768 31.8587 133.566C31.0616 134.363 31.0335 135.63 31.7978 136.394ZM23.3216 144.869C24.0859 145.634 25.3523 145.605 26.1493 144.808C26.9476 144.01 26.9757 142.744 26.2114 141.979C25.4482 141.215 24.1818 141.243 23.3836 142.041C22.5854 142.84 22.5573 144.106 23.3216 144.869ZM133.884 18.1163C134.648 18.8794 135.915 18.8525 136.712 18.0543C137.51 17.256 137.538 15.9896 136.774 15.2253C136.011 14.4622 134.744 14.4891 133.946 15.2885C133.147 16.0856 133.12 17.352 133.884 18.1163ZM125.408 26.5914C126.172 27.3557 127.439 27.3276 128.237 26.5305C129.035 25.7311 129.062 24.4659 128.299 23.7016C127.535 22.9373 126.268 22.9654 125.47 23.7636C124.672 24.5607 124.645 25.8271 125.408 26.5914ZM116.933 35.0665C117.696 35.8308 118.962 35.8038 119.762 35.0056C120.56 34.2074 120.587 32.941 119.824 32.1767C119.058 31.4124 117.792 31.4405 116.995 32.2387C116.197 33.0369 116.17 34.3033 116.933 35.0665ZM108.458 43.5427C109.221 44.307 110.487 44.2789 111.285 43.4807C112.084 42.6825 112.112 41.416 111.346 40.6529C110.583 39.8886 109.317 39.9167 108.518 40.715C107.721 41.512 107.693 42.7784 108.458 43.5427ZM99.9814 52.0178C100.746 52.7821 102.012 52.754 102.81 51.9569C103.607 51.1587 103.637 49.8923 102.871 49.128C102.108 48.3637 100.842 48.3918 100.043 49.19C99.2451 49.9883 99.2171 51.2547 99.9814 52.0178ZM91.5063 60.4941C92.2705 61.2572 93.537 61.2303 94.334 60.432C95.1322 59.6338 95.1603 58.3674 94.3961 57.6031C93.6329 56.84 92.3665 56.8669 91.5683 57.6651C90.7689 58.4634 90.742 59.7298 91.5063 60.4941ZM83.03 68.9692C83.7943 69.7335 85.0607 69.7054 85.8589 68.9083C86.6572 68.1089 86.6841 66.8437 85.921 66.0794C85.1555 65.3151 83.8903 65.3432 83.092 66.1414C82.2938 66.9385 82.2669 68.2049 83.03 68.9692ZM74.5549 77.4442C75.318 78.2085 76.5844 78.1804 77.3838 77.3834C78.1821 76.5851 78.209 75.3187 77.4459 74.5545C76.6804 73.7902 75.414 73.8182 74.6169 74.6165C73.8187 75.4147 73.7918 76.6811 74.5549 77.4442ZM66.0798 85.9205C66.8429 86.6848 68.1093 86.6567 68.9076 85.8585C69.7058 85.0602 69.7339 83.7938 68.9696 83.0307C68.2053 82.2664 66.9389 82.2945 66.1407 83.0927C65.3436 83.8898 65.3155 85.1562 66.0798 85.9205ZM57.6035 94.3956C58.3678 95.1599 59.6342 95.1318 60.4313 94.3347C61.2295 93.5365 61.2588 92.2701 60.4933 91.5058C59.7302 90.7415 58.4638 90.7696 57.6656 91.5678C56.8685 92.3661 56.8392 93.6325 57.6035 94.3956ZM49.1284 102.872C49.8927 103.635 51.1591 103.608 51.9562 102.81C52.7544 102.012 52.7825 100.745 52.0182 99.9809C51.2551 99.2178 49.9887 99.2447 49.1905 100.043C48.3911 100.841 48.3641 102.108 49.1284 102.872ZM40.6522 111.347C41.4165 112.111 42.6829 112.083 43.4811 111.286C44.2793 110.487 44.3062 109.22 43.5431 108.457C42.7777 107.693 41.5124 107.721 40.7142 108.519C39.916 109.316 39.889 110.583 40.6522 111.347ZM32.1771 119.823C32.9413 120.586 34.2066 120.559 35.006 119.761C35.8031 118.963 35.8311 117.697 35.068 116.932C34.3026 116.168 33.0361 116.196 32.2391 116.994C31.4408 117.792 31.4139 119.059 32.1771 119.823ZM23.702 128.298C24.4651 129.063 25.7315 129.034 26.5297 128.236C27.328 127.438 27.356 126.172 26.5918 125.408C25.8275 124.644 24.5611 124.672 23.7628 125.471C22.9658 126.268 22.9377 127.534 23.702 128.298ZM15.2257 136.773C15.99 137.538 17.2564 137.51 18.0535 136.713C18.8517 135.914 18.8798 134.648 18.1155 133.884C17.3524 133.119 16.086 133.147 15.2877 133.946C14.4907 134.744 14.4614 136.01 15.2257 136.773ZM125.788 10.0204C126.552 10.7835 127.819 10.7566 128.616 9.95839C129.414 9.16015 129.442 7.89375 128.678 7.12946C127.915 6.36633 126.648 6.39325 125.85 7.19266C125.051 7.98972 125.024 9.25613 125.788 10.0204ZM117.312 18.4955C118.076 19.2598 119.341 19.2317 120.141 18.4346C120.939 17.6352 120.966 16.37 120.203 15.6057C119.439 14.8414 118.172 14.8695 117.374 15.6677C116.576 16.4648 116.549 17.7312 117.312 18.4955ZM108.837 26.9706C109.6 27.7349 110.866 27.708 111.666 26.9097C112.464 26.1115 112.491 24.8451 111.728 24.0808C110.962 23.3177 109.696 23.3446 108.899 24.1428C108.101 24.9411 108.074 26.2075 108.837 26.9706ZM100.362 35.4469C101.125 36.2111 102.391 36.1831 103.19 35.3848C103.988 34.5866 104.016 33.3202 103.25 32.5571C102.487 31.7928 101.221 31.8209 100.423 32.6191C99.6255 33.4162 99.5975 34.6826 100.362 35.4469ZM91.8855 43.9219C92.6498 44.6862 93.9162 44.6581 94.7144 43.8611C95.5115 43.0628 95.5407 41.7964 94.7753 41.0322C94.0122 40.2679 92.7457 40.2959 91.9475 41.0942C91.1493 41.8924 91.1212 43.1588 91.8855 43.9219ZM83.4104 52.3982C84.1747 53.1613 85.4411 53.1344 86.2381 52.3362C87.0364 51.5379 87.0645 50.2715 86.3002 49.5072C85.537 48.7441 84.2706 48.771 83.4724 49.5693C82.673 50.3675 82.6461 51.6339 83.4104 52.3982ZM74.9341 60.8733C75.6984 61.6376 76.9648 61.6095 77.763 60.8124C78.5613 60.013 78.5882 58.7466 77.8251 57.9835C77.0608 57.2192 75.7944 57.2473 74.9961 58.0455C74.1979 58.8426 74.171 60.109 74.9341 60.8733ZM66.459 69.3495C67.2221 70.1127 68.4885 70.0857 69.2879 69.2875C70.0862 68.4893 70.1131 67.2229 69.35 66.4586C68.5845 65.6943 67.3181 65.7224 66.521 66.5206C65.7228 67.3189 65.6959 68.5853 66.459 69.3495ZM57.9839 77.8246C58.747 78.5889 60.0134 78.5608 60.8117 77.7626C61.6099 76.9644 61.638 75.698 60.8725 74.9348C60.1094 74.1706 58.843 74.1986 58.0448 74.9969C57.2477 75.7939 57.2196 77.0603 57.9839 77.8246ZM49.5076 86.2997C50.2719 87.064 51.5383 87.0359 52.3354 86.2389C53.1336 85.4406 53.1629 84.1742 52.3974 83.4099C51.6343 82.6456 50.3679 82.6737 49.5697 83.472C48.7726 84.2702 48.7434 85.5366 49.5076 86.2997ZM41.0325 94.776C41.7968 95.5391 43.0632 95.5122 43.8603 94.7139C44.6585 93.9157 44.6866 92.6493 43.9223 91.885C43.1592 91.1219 41.8928 91.1488 41.0946 91.9471C40.2952 92.7453 40.2682 94.0117 41.0325 94.776ZM32.5563 103.251C33.3206 104.015 34.587 103.987 35.3852 103.19C36.1834 102.391 36.2104 101.126 35.4472 100.361C34.683 99.597 33.4165 99.6251 32.6183 100.423C31.8201 101.22 31.7932 102.487 32.5563 103.251ZM24.0812 111.727C24.8455 112.49 26.1107 112.464 26.9101 111.665C27.7072 110.867 27.7353 109.601 26.9721 108.836C26.2067 108.072 24.9403 108.1 24.1432 108.898C23.345 109.697 23.3181 110.963 24.0812 111.727ZM15.6061 120.202C16.3692 120.967 17.6356 120.939 18.4338 120.14C19.2321 119.342 19.2602 118.076 18.4959 117.313C17.7316 116.548 16.4652 116.576 15.6669 117.375C14.8699 118.172 14.8418 119.438 15.6061 120.202ZM7.12981 128.677C7.8941 129.442 9.16051 129.414 9.95757 128.617C10.7558 127.818 10.7851 126.552 10.0196 125.788C9.25648 125.023 7.99008 125.051 7.19184 125.85C6.39478 126.648 6.36552 127.914 7.12981 128.677ZM117.692 1.92455C118.457 2.68768 119.723 2.66076 120.52 1.86252C121.318 1.06429 121.346 -0.202118 120.582 -0.96524C119.819 -1.72953 118.553 -1.70261 117.754 -0.903206C116.955 -0.106144 116.928 1.16026 117.692 1.92455ZM109.216 10.3996C109.98 11.1639 111.247 11.1358 112.045 10.3388C112.843 9.53938 112.87 8.27414 112.107 7.50985C111.343 6.74556 110.076 6.77365 109.278 7.57188C108.48 8.36894 108.453 9.63535 109.216 10.3996ZM100.741 18.8747C101.505 19.639 102.771 19.6121 103.57 18.8139C104.368 18.0156 104.395 16.7492 103.632 15.9849C102.866 15.2218 101.6 15.2487 100.803 16.047C100.005 16.8452 99.9778 18.1116 100.741 18.8747ZM92.2659 27.351C93.029 28.1153 94.2954 28.0872 95.0936 27.289C95.8919 26.4907 95.92 25.2243 95.1545 24.4612C94.3914 23.6969 93.125 23.725 92.3267 24.5232C91.5297 25.3203 91.5016 26.5867 92.2659 27.351ZM83.7908 35.8261C84.5539 36.5904 85.8203 36.5623 86.6185 35.7652C87.4156 34.967 87.4449 33.7006 86.6794 32.9363C85.9163 32.172 84.6499 32.2001 83.8516 32.9983C83.0534 33.7965 83.0253 35.063 83.7908 35.8261ZM75.3145 44.3023C76.0788 45.0655 77.3452 45.0385 78.1423 44.2403C78.9405 43.4421 78.9686 42.1757 78.2043 41.4114C77.4412 40.6482 76.1748 40.6752 75.3765 41.4746C74.5783 42.2716 74.5502 43.538 75.3145 44.3023ZM66.8382 52.7774C67.6025 53.5417 68.8689 53.5136 69.6672 52.7166C70.4654 51.9172 70.4923 50.6519 69.7292 49.8876C68.9649 49.1233 67.6985 49.1514 66.9003 49.9497C66.102 50.7467 66.0751 52.0131 66.8382 52.7774ZM58.3631 61.2537C59.1274 62.0168 60.3927 61.9899 61.1921 61.1916C61.9903 60.3934 62.0172 59.127 61.2541 58.3627C60.4886 57.5996 59.2222 57.6265 58.4252 58.4247C57.6269 59.223 57.6 60.4894 58.3631 61.2537ZM49.888 69.7288C50.6512 70.4931 51.9176 70.465 52.7158 69.6667C53.514 68.8685 53.5421 67.6021 52.7767 66.839C52.0135 66.0747 50.7471 66.1028 49.9489 66.901C49.1518 67.6981 49.1237 68.9645 49.888 69.7288ZM41.4118 78.2039C42.1761 78.9681 43.4425 78.9401 44.2395 78.143C45.0378 77.3448 45.067 76.0784 44.3016 75.3141C43.5384 74.5498 42.272 74.5779 41.4738 75.3761C40.6767 76.1743 40.6475 77.4407 41.4118 78.2039ZM32.9367 86.6801C33.701 87.4432 34.9674 87.4163 35.7644 86.6181C36.5627 85.8198 36.5908 84.5534 35.8265 83.7891C35.0633 83.026 33.7969 83.0529 32.9987 83.8523C32.2005 84.6494 32.1724 85.9158 32.9367 86.6801ZM24.4604 95.1552C25.2247 95.9195 26.4911 95.8914 27.2893 95.0943C28.0876 94.2949 28.1145 93.0297 27.3514 92.2654C26.5871 91.5011 25.3207 91.5292 24.5224 92.3274C23.7242 93.1245 23.6973 94.3921 24.4604 95.1552ZM15.9853 103.631C16.7496 104.395 18.0148 104.368 18.8142 103.569C19.6113 102.771 19.6394 101.505 18.8763 100.74C18.1108 99.9774 16.8444 100.004 16.0473 100.803C15.2491 101.601 15.2222 102.867 15.9853 103.631ZM7.5102 112.107C8.27332 112.871 9.53973 112.843 10.338 112.045C11.1362 111.246 11.1643 109.98 10.4 109.217C9.63571 108.452 8.3693 108.481 7.57106 109.279C6.774 110.076 6.74591 111.342 7.5102 112.107ZM-0.966068 120.582C-0.201775 121.346 1.06463 121.318 1.86169 120.521C2.6611 119.723 2.68919 118.456 1.92373 117.692C1.16061 116.928 -0.105801 116.956 -0.904034 117.754C-1.7011 118.552 -1.73036 119.819 -0.966068 120.582ZM109.596 -6.17131C110.361 -5.40819 111.627 -5.43511 112.424 -6.23335C113.222 -7.03158 113.249 -8.29799 112.486 -9.06111C111.723 -9.8254 110.457 -9.79848 109.658 -8.99907C108.859 -8.20201 108.832 -6.9356 109.596 -6.17131ZM101.12 2.30377C101.884 3.06807 103.151 3.03997 103.949 2.24291C104.747 1.44351 104.774 0.178272 104.011 -0.586021C103.247 -1.35031 101.98 -1.32222 101.182 -0.523987C100.384 0.274246 100.357 1.53948 101.12 2.30377ZM92.6451 10.7789C93.4094 11.5431 94.6746 11.5162 95.474 10.718C96.2722 9.91976 96.2992 8.65335 95.5361 7.88906C94.7706 7.12595 93.5054 7.15287 92.7071 7.9511C91.9089 8.74933 91.882 10.0157 92.6451 10.7789ZM84.17 19.2551C84.9331 20.0194 86.1995 19.9913 86.9978 19.1931C87.796 18.3949 87.8241 17.1284 87.0598 16.3653C86.2955 15.601 85.0291 15.6291 84.2309 16.4274C83.4338 17.2244 83.4057 18.4908 84.17 19.2551ZM75.6949 27.7302C76.458 28.4945 77.7244 28.4676 78.5227 27.6693C79.3209 26.8711 79.349 25.6047 78.5835 24.8404C77.8204 24.0761 76.554 24.1042 75.7558 24.9024C74.9587 25.7007 74.9294 26.9671 75.6949 27.7302ZM67.2186 36.2065C67.9829 36.9696 69.2493 36.9427 70.0464 36.1444C70.8446 35.3462 70.8727 34.0798 70.1084 33.3167C69.3453 32.5524 68.0789 32.5793 67.2807 33.3787C66.4824 34.1758 66.4543 35.4422 67.2186 36.2065ZM58.7424 44.6816C59.5066 45.4458 60.7731 45.4178 61.5713 44.6207C62.3695 43.8225 62.3964 42.5561 61.6333 41.7918C60.869 41.0275 59.6026 41.0556 58.8044 41.8538C58.0061 42.652 57.9792 43.9173 58.7424 44.6816ZM50.2673 53.1578C51.0315 53.9209 52.2968 53.894 53.0962 53.0958C53.8944 52.2975 53.9213 51.0311 53.1582 50.2669C52.3928 49.5037 51.1264 49.5306 50.3293 50.3289C49.5311 51.1271 49.5041 52.3935 50.2673 53.1578ZM41.7922 61.6329C42.5553 62.3972 43.8217 62.3691 44.6199 61.5709C45.4182 60.7726 45.4462 59.5062 44.682 58.7431C43.9177 57.9788 42.6513 58.0069 41.853 58.8051C41.056 59.6022 41.0279 60.8686 41.7922 61.6329ZM33.3159 70.108C34.0802 70.8723 35.3466 70.8454 36.1437 70.0471C36.9419 69.2489 36.9711 67.9825 36.2057 67.2182C35.4426 66.4539 34.1762 66.482 33.3779 67.2802C32.5809 68.0785 32.5516 69.3449 33.3159 70.108ZM24.8408 78.5842C25.6051 79.3474 26.8715 79.3204 27.6685 78.5222C28.4668 77.724 28.4949 76.4576 27.7306 75.6933C26.9675 74.9302 25.7011 74.9582 24.9028 75.7565C24.1046 76.5535 24.0765 77.8199 24.8408 78.5842ZM16.3645 87.0593C17.1288 87.8236 18.3952 87.7955 19.1935 86.9985C19.9917 86.1991 20.0186 84.9338 19.2555 84.1695C18.4912 83.4053 17.2248 83.4333 16.4266 84.2316C15.6283 85.0286 15.6014 86.2962 16.3645 87.0593ZM7.88942 95.5356C8.65371 96.2987 9.91895 96.2718 10.7184 95.4736C11.5166 94.6753 11.5435 93.4089 10.7804 92.6446C10.0149 91.8803 8.74852 91.9084 7.95145 92.7066C7.15322 93.5049 7.1263 94.7713 7.88942 95.5356ZM-0.585674 104.011C0.177444 104.775 1.44386 104.747 2.24326 103.95C3.04032 103.15 3.06841 101.884 2.30412 101.121C1.53983 100.357 0.273422 100.385 -0.524815 101.183C-1.32188 101.98 -1.34997 103.246 -0.585674 104.011ZM-9.06195 112.486C-8.29765 113.25 -7.03125 113.222 -6.23418 112.425C-5.43595 111.627 -5.40669 110.36 -6.17215 109.596C-6.93527 108.832 -8.20168 108.86 -8.99991 109.658C-9.79698 110.456 -9.82624 111.723 -9.06195 112.486ZM101.501 -14.2672C102.265 -13.5029 103.531 -13.531 104.328 -14.3292C105.127 -15.1275 105.153 -16.3927 104.39 -17.157C103.627 -17.9213 102.361 -17.8944 101.563 -17.0949C100.763 -16.2979 100.736 -15.0315 101.501 -14.2672ZM93.0243 -5.7921C93.7886 -5.02781 95.0562 -5.0559 95.8532 -5.85296C96.6515 -6.65236 96.6784 -7.9176 95.9153 -8.68189C95.1522 -9.44618 93.8858 -9.41809 93.0863 -8.61986C92.2881 -7.82162 92.2612 -6.55639 93.0243 -5.7921ZM84.5492 2.68299C85.3135 3.44728 86.5787 3.42036 87.3781 2.62213C88.1764 1.82389 88.2033 0.557487 87.4402 -0.206802C86.6747 -0.969921 85.4095 -0.943001 84.6112 -0.144768C83.813 0.653465 83.7861 1.91987 84.5492 2.68299ZM76.0741 11.1592C76.8372 11.9235 78.1036 11.8955 78.9019 11.0972C79.7001 10.299 79.7282 9.03258 78.9639 8.26945C78.1996 7.50517 76.9332 7.53326 76.135 8.33149C75.3379 9.12855 75.3098 10.395 76.0741 11.1592ZM67.599 19.6343C68.3621 20.3986 69.6285 20.3717 70.4268 19.5735C71.225 18.7752 71.2531 17.5088 70.4876 16.7445C69.7245 15.9803 68.4581 16.0083 67.6599 16.8066C66.8628 17.6048 66.8335 18.8712 67.599 19.6343ZM59.1227 28.1106C59.887 28.8737 61.1534 28.8468 61.9505 28.0486C62.7487 27.2503 62.7768 25.9839 62.0125 25.2196C61.2494 24.4565 59.983 24.4834 59.1848 25.2828C58.3854 26.0799 58.3584 27.3463 59.1227 28.1106ZM50.6465 36.5857C51.4108 37.35 52.6772 37.3219 53.4754 36.5248C54.2736 35.7266 54.3006 34.4602 53.5374 33.6959C52.7743 32.9316 51.5067 32.9597 50.7085 33.7579C49.9103 34.5562 49.8834 35.8214 50.6465 36.5857ZM42.1714 45.0619C42.9357 45.8251 44.2009 45.7981 45.0003 44.9999C45.7985 44.2017 45.8255 42.9353 45.0623 42.171C44.2969 41.4079 43.0305 41.4348 42.2334 42.2342C41.4352 43.0312 41.4083 44.2976 42.1714 45.0619ZM33.6963 53.537C34.4594 54.3013 35.7258 54.2732 36.524 53.475C37.3223 52.6768 37.3504 51.4104 36.5861 50.6472C35.8218 49.8829 34.5554 49.911 33.7571 50.7093C32.9601 51.5063 32.932 52.7727 33.6963 53.537ZM25.22 62.0121C25.9843 62.7764 27.2507 62.7495 28.0489 61.9513C28.846 61.153 28.8753 59.8866 28.1098 59.1223C27.3467 58.3592 26.0803 58.3861 25.282 59.1844C24.485 59.9826 24.4557 61.249 25.22 62.0121ZM16.7449 70.4884C17.5092 71.2515 18.7756 71.2246 19.5727 70.4263C20.3709 69.6281 20.399 68.3617 19.6347 67.5986C18.8716 66.8343 17.6052 66.8624 16.8069 67.6606C16.0087 68.4577 15.9806 69.7241 16.7449 70.4884ZM8.26864 78.9635C9.03293 79.7278 10.2993 79.6997 11.0976 78.9026C11.8958 78.1032 11.9227 76.838 11.1596 76.0737C10.3953 75.3094 9.12891 75.3375 8.33067 76.1357C7.53244 76.9328 7.50552 78.2003 8.26864 78.9635ZM-0.206459 87.4397C0.557835 88.2028 1.82307 88.1759 2.62247 87.3777C3.42071 86.5795 3.44763 85.313 2.68451 84.5488C1.91905 83.7845 0.653809 83.8126 -0.144424 84.6108C-0.942661 85.409 -0.969578 86.6754 -0.206459 87.4397ZM-8.68155 95.9148C-7.91843 96.6791 -6.65202 96.651 -5.85262 95.854C-5.05556 95.0546 -5.02747 93.7881 -5.79176 93.025C-6.55605 92.2607 -7.82246 92.2888 -8.62069 93.0871C-9.41776 93.8841 -9.44585 95.1505 -8.68155 95.9148ZM-17.1578 104.39C-16.3935 105.154 -15.1271 105.126 -14.3301 104.329C-13.5307 103.531 -13.5026 102.264 -14.268 101.5C-15.0311 100.736 -16.2976 100.764 -17.0958 101.562C-17.8929 102.36 -17.9221 103.627 -17.1578 104.39ZM93.4047 -22.3631C94.169 -21.5988 95.4354 -21.6269 96.2325 -22.4251C97.0307 -23.2233 97.0588 -24.4897 96.2945 -25.2528C95.5314 -26.0171 94.265 -25.9902 93.4667 -25.1908C92.6673 -24.3937 92.6404 -23.1273 93.4047 -22.3631ZM84.9284 -13.888C85.6927 -13.1237 86.9603 -13.1506 87.7574 -13.9488C88.5556 -14.7471 88.5825 -16.0135 87.8194 -16.7778C87.0563 -17.542 85.7899 -17.514 84.9905 -16.7157C84.1922 -15.9175 84.1653 -14.6511 84.9284 -13.888ZM76.4533 -5.41171C77.2176 -4.64859 78.4829 -4.67551 79.2823 -5.47374C80.0805 -6.27197 80.1074 -7.53838 79.3443 -8.3015C78.5788 -9.06579 77.3136 -9.03887 76.5154 -8.24064C75.7171 -7.44241 75.6902 -6.176 76.4533 -5.41171ZM67.9782 3.06338C68.7413 3.82767 70.0078 3.79958 70.806 3.00135C71.6042 2.20312 71.6323 0.937881 70.868 0.173588C70.1037 -0.590702 68.8373 -0.562611 68.0391 0.235622C67.242 1.03386 67.2139 2.29909 67.9782 3.06338ZM59.5031 11.5385C60.2663 12.3028 61.5327 12.2758 62.3309 11.4776C63.1291 10.6794 63.1572 9.41297 62.3918 8.64867C61.6286 7.88438 60.3622 7.91248 59.564 8.71071C58.7669 9.50894 58.7377 10.7753 59.5031 11.5385ZM51.0269 20.0147C51.7912 20.779 53.0576 20.7509 53.8546 19.9527C54.6529 19.1545 54.681 17.8881 53.9167 17.1238C53.1535 16.3606 51.8871 16.3876 51.0889 17.187C50.2895 17.984 50.2626 19.2504 51.0269 20.0147ZM42.5506 28.4898C43.3149 29.2541 44.5813 29.226 45.3795 28.4289C46.1778 27.6307 46.2047 26.3643 45.4416 25.6C44.6784 24.8357 43.4109 24.8638 42.6126 25.662C41.8144 26.4603 41.7875 27.7255 42.5506 28.4898ZM34.0755 36.9661C34.8398 37.7292 36.1062 37.7023 36.9044 36.904C37.7027 36.1058 37.7296 34.8394 36.9665 34.0751C36.201 33.312 34.9358 33.3389 34.1375 34.1383C33.3393 34.9354 33.3124 36.2018 34.0755 36.9661ZM25.6004 45.4412C26.3635 46.2055 27.6299 46.1774 28.4282 45.3803C29.2264 44.5809 29.2545 43.3157 28.4902 42.5514C27.7259 41.7871 26.4595 41.8152 25.6613 42.6134C24.8642 43.4116 24.8361 44.6769 25.6004 45.4412ZM17.1241 53.9163C17.8884 54.6805 19.1548 54.6536 19.9531 53.8554C20.7513 53.0572 20.7794 51.7907 20.0139 51.0265C19.2508 50.2622 17.9844 50.2903 17.1862 51.0885C16.3891 51.8867 16.3598 53.1531 17.1241 53.9163ZM8.64903 62.3925C9.41332 63.1556 10.6797 63.1287 11.4768 62.3305C12.275 61.5322 12.3031 60.2658 11.5388 59.5027C10.7757 58.7384 9.5093 58.7665 8.71106 59.5647C7.91283 60.3618 7.88474 61.6282 8.64903 62.3925ZM0.17276 70.8676C0.937054 71.6319 2.20346 71.6038 3.00169 70.8067C3.79993 70.0073 3.82685 68.7421 3.06373 67.9778C2.29943 67.2135 1.03303 67.2416 0.234795 68.0398C-0.563442 68.8369 -0.590359 70.1045 0.17276 70.8676ZM-8.30234 79.3438C-7.53804 80.107 -6.27164 80.0801 -5.4734 79.2818C-4.67517 78.4836 -4.64825 77.2172 -5.41137 76.4529C-6.17683 75.6898 -7.44207 75.7167 -8.2403 76.5161C-9.03854 77.3132 -9.06546 78.5796 -8.30234 79.3438ZM-16.7774 87.8189C-16.0143 88.5832 -14.7479 88.5551 -13.9485 87.7581C-13.1514 86.9587 -13.1233 85.6934 -13.8876 84.9292C-14.6519 84.1649 -15.9183 84.1929 -16.7166 84.9912C-17.5136 85.7882 -17.5417 87.0547 -16.7774 87.8189ZM-25.2537 96.294C-24.4894 97.0583 -23.223 97.0302 -22.4259 96.2332C-21.6265 95.4349 -21.5984 94.1685 -22.3639 93.4042C-23.127 92.6399 -24.3934 92.668 -25.1917 93.4663C-25.9887 94.2645 -26.0168 95.5309 -25.2537 96.294ZM85.3088 -30.4589C86.0731 -29.6946 87.3395 -29.7227 88.1366 -30.521C88.9348 -31.3192 88.9629 -32.5844 88.1986 -33.3487C87.4355 -34.113 86.1691 -34.0861 85.3708 -33.2867C84.5714 -32.4896 84.5445 -31.2232 85.3088 -30.4589ZM76.8326 -21.9838C77.5968 -21.2195 78.8644 -21.2465 79.6615 -22.0447C80.4597 -22.8429 80.4866 -24.1093 79.7235 -24.8736C78.9604 -25.6379 77.694 -25.6098 76.8946 -24.8116C76.0963 -24.0134 76.0694 -22.747 76.8326 -21.9838ZM68.3575 -13.5076C69.1217 -12.7433 70.3882 -12.7714 71.1864 -13.5696C71.9846 -14.3678 72.0115 -15.6342 71.2484 -16.3974C70.4841 -17.1617 69.2177 -17.1347 68.4195 -16.3365C67.6212 -15.5383 67.5943 -14.2719 68.3575 -13.5076ZM59.8823 -5.03249C60.6455 -4.2682 61.9119 -4.29629 62.7101 -5.09452C63.5083 -5.89275 63.5364 -7.15799 62.7721 -7.92228C62.0079 -8.68657 60.7414 -8.65848 59.9432 -7.86025C59.1461 -7.06202 59.1181 -5.79678 59.8823 -5.03249ZM51.4072 3.4426C52.1704 4.20689 53.4368 4.17997 54.235 3.38174C55.0332 2.5835 55.0613 1.3171 54.2959 0.552807C53.5328 -0.210312 52.2663 -0.183392 51.4681 0.614841C50.6711 1.41307 50.6418 2.67948 51.4072 3.4426ZM42.931 11.9189C43.6953 12.6831 44.9617 12.6551 45.7588 11.8568C46.557 11.0586 46.5851 9.79219 45.8208 9.02906C45.0577 8.26477 43.7913 8.29169 42.993 9.0911C42.1936 9.88816 42.1667 11.1546 42.931 11.9189ZM34.4547 20.3939C35.219 21.1582 36.4854 21.1313 37.2837 20.3331C38.0819 19.5348 38.1088 18.2684 37.3457 17.5042C36.5826 16.7399 35.315 16.768 34.5179 17.5662C33.7185 18.3644 33.6916 19.6308 34.4547 20.3939ZM25.9796 28.8702C26.7439 29.6333 28.0103 29.6064 28.8086 28.8082C29.6068 28.0099 29.6337 26.7435 28.8706 25.9792C28.1063 25.2161 26.8399 25.243 26.0416 26.0424C25.2434 26.8395 25.2165 28.1059 25.9796 28.8702ZM17.5045 37.3453C18.2676 38.1096 19.534 38.0815 20.3335 37.2844C21.1305 36.485 21.1586 35.2198 20.3943 34.4555C19.63 33.6912 18.3636 33.7193 17.5654 34.5175C16.7683 35.3146 16.7402 36.581 17.5045 37.3453ZM9.02942 45.8204C9.79254 46.5847 11.059 46.5577 11.8572 45.7595C12.6554 44.9613 12.6835 43.6949 11.918 42.9306C11.1549 42.1663 9.88852 42.1944 9.09028 42.9926C8.29322 43.7909 8.26513 45.0573 9.02942 45.8204ZM0.553154 54.2966C1.31744 55.0598 2.58385 55.0328 3.38092 54.2346C4.17915 53.4364 4.20724 52.17 3.44295 51.4068C2.67983 50.6426 1.41342 50.6706 0.615185 51.4689C-0.183048 52.2659 -0.21114 53.5323 0.553154 54.2966ZM-7.92311 62.7717C-7.15882 63.536 -5.89241 63.5091 -5.09418 62.7109C-4.29594 61.9126 -4.26902 60.6462 -5.03215 59.8819C-5.79644 59.1176 -7.06285 59.1457 -7.85991 59.944C-8.65932 60.7422 -8.68624 62.0086 -7.92311 62.7717ZM-16.3982 71.248C-15.6339 72.0111 -14.3675 71.9842 -13.5693 71.186C-12.771 70.3877 -12.7441 69.1213 -13.5072 68.357C-14.2727 67.5939 -15.5379 67.6208 -16.3362 68.4202C-17.1344 69.2173 -17.1613 70.4837 -16.3982 71.248ZM-24.8733 79.7231C-24.1102 80.4874 -22.8438 80.4593 -22.0444 79.6622C-21.2473 78.8628 -21.2192 77.5964 -21.9835 76.8333C-22.7478 76.069 -24.0142 76.0971 -24.8124 76.8953C-25.6095 77.6924 -25.6376 78.9588 -24.8733 79.7231ZM-33.3496 88.1982C-32.5853 88.9624 -31.3189 88.9344 -30.5218 88.1373C-29.7224 87.3391 -29.6943 86.0727 -30.4598 85.3084C-31.2229 84.5441 -32.4893 84.5722 -33.2875 85.3704C-34.0846 86.1686 -34.1127 87.435 -33.3496 88.1982ZM77.2129 -38.5548C77.9772 -37.7905 79.2436 -37.8186 80.0407 -38.6168C80.8389 -39.4151 80.867 -40.6803 80.1027 -41.4446C79.3396 -42.2089 78.0732 -42.1808 77.275 -41.3825C76.4756 -40.5855 76.4486 -39.3191 77.2129 -38.5548ZM68.7367 -30.0797C69.501 -29.3154 70.7685 -29.3423 71.5656 -30.1406C72.3638 -30.9388 72.3908 -32.2052 71.6276 -32.9695C70.8645 -33.7326 69.5981 -33.7057 68.7987 -32.9075C68.0005 -32.1092 67.9735 -30.844 68.7367 -30.0797ZM60.2616 -21.6034C61.0259 -20.8392 62.2923 -20.8672 63.0905 -21.6655C63.8887 -22.4637 63.9157 -23.7301 63.1525 -24.4932C62.3882 -25.2575 61.1218 -25.2306 60.3236 -24.4312C59.5254 -23.6341 59.4985 -22.3677 60.2616 -21.6034ZM51.7865 -13.1284C52.5496 -12.3641 53.816 -12.391 54.6154 -13.1904C55.4125 -13.9875 55.4406 -15.2539 54.6763 -16.0181C53.912 -16.7824 52.6456 -16.7543 51.8473 -15.9561C51.0503 -15.1579 51.0222 -13.8926 51.7865 -13.1284ZM43.3114 -4.65327C44.0745 -3.88898 45.3409 -3.91589 46.1391 -4.71413C46.9374 -5.51236 46.9655 -6.77877 46.2 -7.54306C45.4369 -8.30618 44.1705 -8.27926 43.3722 -7.48103C42.5752 -6.68279 42.5459 -5.41639 43.3114 -4.65327ZM34.8351 3.82299C35.5994 4.58728 36.8658 4.55919 37.6629 3.76096C38.4611 2.96272 38.4892 1.69749 37.7249 0.933197C36.9618 0.168907 35.6954 0.195827 34.8971 0.995232C34.0977 1.79229 34.0708 3.0587 34.8351 3.82299ZM26.3588 12.2981C27.1231 13.0624 28.3895 13.0354 29.1878 12.2372C29.986 11.4378 30.0129 10.1726 29.2498 9.40828C28.4867 8.64399 27.2191 8.67208 26.422 9.47032C25.6226 10.2686 25.5957 11.535 26.3588 12.2981ZM17.8837 20.7743C18.648 21.5375 19.9144 21.5105 20.7127 20.7123C21.5109 19.9141 21.5378 18.6477 20.7747 17.8834C20.0104 17.1203 18.744 17.1472 17.9458 17.9466C17.1475 18.7436 17.1206 20.01 17.8837 20.7743ZM9.40864 29.2494C10.1718 30.0137 11.4382 29.9856 12.2376 29.1886C13.0346 28.3892 13.0627 27.1239 12.2984 26.3596C11.5341 25.5953 10.2677 25.6234 9.4695 26.4217C8.67244 27.2187 8.64435 28.4851 9.40864 29.2494ZM0.933544 37.7245C1.69666 38.4888 2.96307 38.4619 3.76131 37.6637C4.55954 36.8654 4.58763 35.599 3.82217 34.8347C3.05905 34.0704 1.79264 34.0985 0.994404 34.8968C0.197342 35.695 0.16925 36.9614 0.933544 37.7245ZM-7.54272 46.2008C-6.77843 46.9651 -5.51203 46.937 -4.71496 46.1387C-3.91673 45.3405 -3.88864 44.0753 -4.65293 43.311C-5.41605 42.5467 -6.68246 42.5748 -7.48069 43.373C-8.27893 44.1701 -8.30702 45.4365 -7.54272 46.2008ZM-16.019 54.6759C-15.2547 55.4401 -13.9883 55.4121 -13.1901 54.615C-12.3918 53.8168 -12.3649 52.5504 -13.128 51.7861C-13.8923 51.0218 -15.1587 51.0499 -15.9558 51.8481C-16.7552 52.6463 -16.7821 53.9127 -16.019 54.6759ZM-24.4941 63.1521C-23.7298 63.9152 -22.4634 63.8883 -21.6652 63.0901C-20.8669 62.2918 -20.84 61.0254 -21.6031 60.2612C-22.3674 59.498 -23.6338 59.5249 -24.4321 60.3232C-25.2303 61.1214 -25.2572 62.3878 -24.4941 63.1521ZM-32.9692 71.6272C-32.2061 72.3915 -30.9397 72.3634 -30.1403 71.5663C-29.3432 70.7669 -29.3151 69.5005 -30.0794 68.7374C-30.8437 67.9731 -32.1101 68.0012 -32.9083 68.7994C-33.7054 69.5965 -33.7335 70.8629 -32.9692 71.6272ZM-38.6177 80.0414C-39.4148 80.8397 -40.6812 80.8666 -41.4455 80.1023C-42.2086 79.3392 -42.1805 78.0728 -41.3834 77.2745C-40.5852 76.4763 -39.3188 76.4494 -38.5557 77.2125C-37.7902 77.9768 -37.8183 79.2432 -38.6177 80.0414Z" fill="#0025B4"/>
</svg>
